# xmcd CD database file
#
# Track frame offsets:
#	150
#	14245
#	28134
#	42346
#	57499
#	72503
#	86936
#	96938
#	113689
#	125101
#	139789
#	154345
#	169912
#	181349
#	194630
#	210105
#	224458
#	243938
#	257784
#	268099
#	281437
#	294039
#	313234
#	328698
#
# Disc length: 4731 seconds
#
# Revision: 1
# Processed by: cddbd v1.5.2PL0 Copyright (c) Steve Scherf et al.
# Submitted via: CDex 1.91
#
DISCID=7f127918
DTITLE=Clelia Adams - Classic Hits
DYEAR=2017
DGENRE=Country
TTITLE0=Clelia Adams - You're Gonna Love Me One Day
TTITLE1=Clelia Adams - Find My Love
TTITLE2=Clelia Adams - Bring It On
TTITLE3=Clelia Adams - Cowgirl Rides Away
TTITLE4=Clelia Adams - Speed of the Sound of Loneliness
TTITLE5=Clelia Adams - Heartbeat Highway
TTITLE6=Clelia Adams - Back In Baby's Arms
TTITLE7=Clelia Adams - Talk Of The Town
TTITLE8=Clelia Adams - Settin' The Woods On Fire
TTITLE9=Clelia Adams - Wildflowers 
TTITLE10=Clelia Adams - I Love You 1000 ways
TTITLE11=Clelia Adams - My Mother's Wedding Band 
TTITLE12=Clelia Adams - If I Could Only Win Your Love
TTITLE13=Clelia Adams - Honky Tonk Stardust Cowboy
TTITLE14=Clelia Adams - When You Fall In Love (Everything's A Waltz)
TTITLE15=Clelia Adams - Rainbird Yodel
TTITLE16=Clelia Adams - River Valley Express
TTITLE17=Clelia Adams - Baby We're Really In Love
TTITLE18=Clelia Adams - Hometown Boogie
TTITLE19=Clelia Adams - Play The Song
TTITLE20=Clelia Adams - Honky Tonk Moon
TTITLE21=Clelia Adams - The Captain and The Gypsy
TTITLE22=Clelia Adams - La Paloma
TTITLE23=Clelia Adams - Forever Young
EXTD=YEAR: 2017
EXTT0=
EXTT1=
EXTT2=
EXTT3=
EXTT4=
EXTT5=
EXTT6=
EXTT7=
EXTT8=
EXTT9=
EXTT10=
EXTT11=
EXTT12=
EXTT13=
EXTT14=
EXTT15=
EXTT16=
EXTT17=
EXTT18=
EXTT19=
EXTT20=
EXTT21=
EXTT22=
EXTT23=
PLAYORDER=
